PathFileType	4	(X/Y/Z)	8_coords_data.trc
DataRate	CameraRate	NumFrames	NumMarkers	Units	OrigDataRate	OrigDataStartFrame	OrigNumFrames
30.0	30.0	6	21	m	30.0	1	62
Frame#	Time	THUMB_TIP	THUMB_IP	THUMB_MCP	THUMB_CMC	INDEX_TIP	INDEX_DIP	INDEX_PIP	INDEX_MCP	MIDDLE_TIP	MIDDLE_DIP	MIDDLE_PIP	MIDDLE_MCP	RING_TIP	RING_DIP	RING_PIP	RING_MCP	PINKY_TIP	PINKY_DIP	PINKY_PIP	PINKY_MCP	WRIST
X1	Y1	Z1	X2	Y2	Z2	X3	Y3	Z3	X4	Y4	Z4	X5	Y5	Z5	X6	Y6	Z6	X7	Y7	Z7	X8	Y8	Z8	X9	Y9	Z9	X10	Y10	Z10	X11	Y11	Z11	X12	Y12	Z12	X13	Y13	Z13	X14	Y14	Z14	X15	Y15	Z15	X16	Y16	Z16	X17	Y17	Z17	X18	Y18	Z18	X19	Y19	Z19	X20	Y20	Z20	X21	Y21	Z21
0	-2.749317978547796e-18	0.4727024930557089	-0.03625343487079036	-0.1718264423073545	0.4809570577975957	-0.032702193350278574	-0.1506781363566408	0.4805190057156148	-0.029000332959048913	-0.11977628624993492	0.4786826052476303	-0.025594171017914613	-0.07533626268837551	0.49777269574908967	-0.01069783016982273	-0.09912137322414036	0.5157782827174828	-0.012571484377062792	-0.09965826970887762	0.5342135900154926	0.0011519337928819207	-0.10984733598409535	0.4977130112531656	0.02274664055867537	-0.11372193063574029	0.5027267561247969	-0.017439340939334413	-0.08870907476876158	0.5191512715020657	-0.010592423114005323	-0.08533935506008403	0.5401568255528801	0.00811389976036403	-0.09297150636480551	0.5030105105272838	0.0328361024051016	-0.09523245691970204	0.5077075509526109	-0.0033501195506399073	-0.0730284507312133	0.525401015661341	-0.0002834696143318993	-0.07143566550743932	0.5441211379367158	0.015865397486843458	-0.0744275031272959	0.5095329282810874	0.03665989282375992	-0.07686995077284844	0.5072583419868921	-0.010421310831457808	-0.0574598228315604	0.5243659937357525	-0.010888309350225112	-0.05712791317038243	0.537137552723548	0.00576210775087882	-0.05644753799408175	0.511942963583616	0.031556535726311896	-0.05557368761202769	0.4622830810018609	-0.023011742144276925	-0.051989820119430985
1	0.03333333333333339	0.4728075273854667	-0.03655699860090067	-0.17136432879110303	0.481115140061929	-0.03248962079295925	-0.1503300707964566	0.4808742624143254	-0.028738094040046125	-0.11943204456530292	0.47919246536364457	-0.02566431808494163	-0.0749616784766575	0.4985059720051418	-0.010607296989457282	-0.09924545930927914	0.5164582518014089	-0.012940479331597587	-0.0997669094745566	0.5346025826954918	0.0012086506565121002	-0.10989583883483964	0.49799382844643836	0.022643243485164333	-0.11363661904788407	0.5030079750319992	-0.01643449881450032	-0.08750041665747464	0.5200245342428373	-0.010702574302271395	-0.08513784305859015	0.5406549084404522	0.008433850512979513	-0.09272694417510197	0.5033000665369578	0.03284346198243837	-0.09494833456740305	0.5083210949100047	-0.003622541928304912	-0.07236527582749142	0.5260973513948671	-0.0009796336144671791	-0.07094409989572298	0.5444574686599419	0.015554420041377415	-0.07406037053838979	0.5099909869176547	0.03658708763055296	-0.0761602191976557	0.5073865274624573	-0.009938321862924426	-0.057010593845254226	0.5244862459378138	-0.010290941875762405	-0.05632118308953926	0.5374038075397152	0.006258288812213242	-0.05605362954863591	0.5118454624469025	0.031682969501295344	-0.05494005019586684	0.462283081001861	-0.023011742144276925	-0.051989820119430985
2	0.06666666666666676	0.4728820581118567	-0.03672728670891545	-0.17099297721233933	0.4812387868990531	-0.03230002816898381	-0.15005104640837935	0.481155670098542	-0.028532846318415683	-0.11915409781305328	0.4795828681668687	-0.0257211682231121	-0.07466240465160892	0.4990963944092468	-0.010548161023904212	-0.09933008387570527	0.5170014180797307	-0.013221883324132322	-0.09984129461568989	0.5349296203515524	0.0012350394907253426	-0.10992032130609469	0.4982469544772825	0.022562208661961347	-0.11354936711706931	0.5032993368899898	-0.015534855983826867	-0.08649422269088022	0.5207076771516612	-0.010778494734942856	-0.08496886469880575	0.541064743369317	0.008662841272454425	-0.09252094118527338	0.5035568353260678	0.032839866284499974	-0.0947063969240343	0.5088002034590643	-0.003802449567584465	-0.0718453550608932	0.5266345050631376	-0.0015035677864647656	-0.07055973114567421	0.5447329116089027	0.015301438337345097	-0.07375651526145777	0.5103633585741588	0.03651697369963136	-0.0755883770148435	0.5074909818010792	-0.009588425803178202	-0.056665305269443134	0.5245782226850106	-0.009855180448665624	-0.055688043311924784	0.5375998166813968	0.006614474142670246	-0.055712259739541276	0.5117813365901185	0.03176648560495654	-0.05442157923016594	0.4622830810018608	-0.023011742144276925	-0.051989820119430985
3	0.10000000000000014	0.47292273961843967	-0.03678539900723499	-0.1707180615757413	0.4813268220307776	-0.03213243001682098	-0.14984412379723677	0.4813671894988959	-0.02837686299532971	-0.11894567582950535	0.47986439616704435	-0.025766256152327527	-0.07443931286741853	0.49955201715868713	-0.010512500904276134	-0.0993782247498495	0.5174192045064647	-0.013429454921644712	-0.099883195580666	0.5352006942820153	0.0012337225401913843	-0.10992409599271526	0.49847368670497627	0.02249969142203523	-0.11346267988356434	0.5035771479104164	-0.014810808189286817	-0.08572581225918952	0.5212231562704598	-0.010834115131186595	-0.08482898380349999	0.5413959139984252	0.00881000903085638	-0.09235080416529096	0.5037828449166751	0.03282591133315527	-0.09450519314083224	0.5091647559850802	-0.0039206634258756035	-0.07145367824745774	0.5270375393091292	-0.0018826494451171794	-0.07026619550407581	0.5449579012238083	0.015103451595239514	-0.07350856798325142	0.5106603868536278	0.03645130933660856	-0.0751426768785042	0.5075751012245279	-0.009355489701661557	-0.0564089388592276	0.5246491538103323	-0.009563326857011334	-0.055211636886440124	0.537741409491047	0.0068488484531025184	-0.055424619939484554	0.5117479289772088	0.03181332079815424	-0.05401127556890145	0.462283081001861	-0.023011742144276925	-0.051989820119430985
4	0.13333333333333353	0.4729314922341288	-0.03675295586869021	-0.17053607553909023	0.4813820846484671	-0.031986939008530335	-0.14970646749824118	0.4815160652492909	-0.028264081054916512	-0.1188043255359788	0.4800500504331279	-0.02580135255384297	-0.07428830854334131	0.49988628899688314	-0.010494813896043231	-0.09939422534734135	0.5177260536760911	-0.013575591499129014	-0.09989582832860372	0.5354224222796939	0.0012078328715077191	-0.10991075394605529	0.49867579266275097	0.02245148451476231	-0.11337897692839971	0.5038144728770099	-0.014292765551773057	-0.08519956754718701	0.5215938315892241	-0.010878167086386115	-0.08471488094474469	0.5416581893048169	0.008885549790165093	-0.09221332042801425	0.5039804876026899	0.03280216617967069	-0.0943426808772489	0.5094323932747512	-0.003997987644556056	-0.07117504340636166	0.5273287890322133	-0.0021400022554087794	-0.0700494728017301	0.5451412168970166	0.014955857229804526	-0.07330968460819717	0.5108919855459033	0.036390846768926344	-0.0748104208660623	0.5076414594833021	-0.009222848322722021	-0.05622806529711283	0.5247041547201747	-0.009395927395303039	-0.05487363741485579	0.5378402117841505	0.0069795584957628165	-0.055189050863324624	0.5117415535593446	0.03182965314701036	-0.05370033138376934	0.4622830810018609	-0.023011742144276925	-0.051989820119430985
5	0.1666666666666669	0.4729138419021687	-0.036651759818855156	-0.17043676481173325	0.48141016127159175	-0.03186450998788071	-0.14963064080391758	0.48161175112940857	-0.02818962794020774	-0.11872312386280895	0.480154438645529	-0.02582837394708959	-0.07420132336120847	0.5001162030488058	-0.01049117239059405	-0.09938337512414444	0.517938523926829	-0.013671556944356844	-0.09988340773404394	0.5356019368941127	0.0011608571220003139	-0.10988406612793611	0.4988554403248887	0.02241311843526106	-0.1133005662319755	0.5039949969690196	-0.013979297400305235	-0.08489703926802267	0.5218426842418272	-0.010915792722037243	-0.08462318146131328	0.5418614943916233	0.008900400334007408	-0.09210484457535324	0.5041524523168328	0.03276916083407999	-0.09421632249185295	0.5096193191435923	-0.004047732719283825	-0.07099374298493563	0.5275282391219941	-0.002296132209166135	-0.06989716610201238	0.5452902610530005	0.01485283617576516	-0.0731534583577961	0.5110676890376776	0.036335538123564826	-0.07457820945116478	0.5076922982924945	-0.009173857595387913	-0.056110549780832186	0.524746771533579	-0.009332625461966337	-0.054654618726942494	0.537904841993057	0.007024536270605175	-0.05500169341330155	0.5117577202001864	0.03182154021121553	-0.0534785163001085	0.4622830810018609	-0.023011742144276925	-0.051989820119430985
